# xmcd
#
# Track frame offsets: 
#        150
#        17047
#        32947
#        51016
#        81388
#        106327
#        135435
#        164748
#
# Disc length: 2450 seconds
#
# Revision: 0
# Processed by: cddbd v1.5.2PL0 Copyright (c) Steve Scherf et al.
# Submitted via: ExactAudioCopyFreeDBPlugin 1.0
#
DISCID=66099008
DTITLE=Elmore D - L'intégrale cazî complète CD4 Tot k'mahî (public)
DYEAR=2005
DGENRE=Blues
TTITLE0=Què 'ne bèle wasse
TTITLE1=San Francisco bay blues
TTITLE2=Louke à ç't-eûre
TTITLE3=Sôlèye di tchin
TTITLE4=Rita
TTITLE5=Dji n'oûveûre qui l' londi
TTITLE6=Ci n' sèrè may pus come divins l'timps
TTITLE7=Tot k'mahî
EXTD=
EXTT0=
EXTT1=
EXTT2=
EXTT3=
EXTT4=
EXTT5=
EXTT6=
EXTT7=
PLAYORDER=
